solid OpenSCAD_Model
  facet normal 0 -1 0
    outer loop
      vertex -6.5 0 0
      vertex -5 0 1
      vertex -6.5 0 1
    endloop
  endfacet
  facet normal -1 0 0
    outer loop
      vertex -6.5 0 0
      vertex -6.5 0 1
      vertex -6.5 5 1
    endloop
  endfacet
  facet normal 0 -1 0
    outer loop
      vertex -6.5 0 0
      vertex 5 0 1
      vertex -5 0 1
    endloop
  endfacet
  facet normal 0 0 1
    outer loop
      vertex -6.5 0 1
      vertex -5 0 1
      vertex -5 5 1
    endloop
  endfacet
  facet normal -1 0 0
    outer loop
      vertex -6.5 0 0
      vertex -6.5 5 1
      vertex -6.5 5 0
    endloop
  endfacet
  facet normal 0 0 -1
    outer loop
      vertex -6.5 0 0
      vertex -6.5 5 0
      vertex 6.5 5 0
    endloop
  endfacet
  facet normal 0 1 0
    outer loop
      vertex -6.5 5 0
      vertex -6.5 5 1
      vertex 6.5 5 0
    endloop
  endfacet
  facet normal 0 1 0
    outer loop
      vertex -5 5 1
      vertex 6.5 5 0
      vertex -6.5 5 1
    endloop
  endfacet
  facet normal 0 0 1
    outer loop
      vertex -6.5 0 1
      vertex -5 5 1
      vertex -6.5 5 1
    endloop
  endfacet
  facet normal 0 -1 0
    outer loop
      vertex -6.5 0 0
      vertex 6.5 0 0
      vertex 6.5 0 1
    endloop
  endfacet
  facet normal 0 -1 0
    outer loop
      vertex -6.5 0 0
      vertex 6.5 0 1
      vertex 5 0 1
    endloop
  endfacet
  facet normal 0 0 -1
    outer loop
      vertex -6.5 0 0
      vertex 6.5 5 0
      vertex 6.5 0 0
    endloop
  endfacet
  facet normal 1 0 0
    outer loop
      vertex 6.5 0 0
      vertex 6.5 5 0
      vertex 6.5 0 1
    endloop
  endfacet
  facet normal 0 0 1
    outer loop
      vertex 5 0 1
      vertex 6.5 0 1
      vertex 6.5 5 1
    endloop
  endfacet
  facet normal 0 1 0
    outer loop
      vertex -5 5 1
      vertex 5 5 1
      vertex 6.5 5 0
    endloop
  endfacet
  facet normal 1 0 0
    outer loop
      vertex 6.5 0 1
      vertex 6.5 5 0
      vertex 6.5 5 1
    endloop
  endfacet
  facet normal 0 1 0
    outer loop
      vertex 6.5 5 0
      vertex 5 5 1
      vertex 6.5 5 1
    endloop
  endfacet
  facet normal 0 0 1
    outer loop
      vertex 5 0 1
      vertex 6.5 5 1
      vertex 5 5 1
    endloop
  endfacet
  facet normal -1 0 0
    outer loop
      vertex -5 0 1
      vertex -5 0 2
      vertex -5 4 2
    endloop
  endfacet
  facet normal 0 -1 0
    outer loop
      vertex -5 0 1
      vertex 5 0 2
      vertex -5 0 2
    endloop
  endfacet
  facet normal 0 0 1
    outer loop
      vertex -5 0 2
      vertex 5 0 2
      vertex -5 4 2
    endloop
  endfacet
  facet normal -1 0 0
    outer loop
      vertex -5 0 1
      vertex -5 4 2
      vertex -5 5 1
    endloop
  endfacet
  facet normal 0 -1 0
    outer loop
      vertex -5 0 1
      vertex 5 0 1
      vertex 5 0 2
    endloop
  endfacet
  facet normal 1 0 0
    outer loop
      vertex 5 0 1
      vertex 5 5 1
      vertex 5 0 2
    endloop
  endfacet
  facet normal 0 0 1
    outer loop
      vertex 5 0 2
      vertex 5 4 2
      vertex -5 4 2
    endloop
  endfacet
  facet normal 1 0 0
    outer loop
      vertex 5 0 2
      vertex 5 5 1
      vertex 5 4 2
    endloop
  endfacet
  facet normal 0 0.7071067811865475 0.7071067811865475
    outer loop
      vertex -5 5 1
      vertex -5 4 2
      vertex 5 5 1
    endloop
  endfacet
  facet normal 0 0.7071067811865475 0.7071067811865475
    outer loop
      vertex 5 5 1
      vertex -5 4 2
      vertex 5 4 2
    endloop
  endfacet
endsolid OpenSCAD_Model
