solid OpenSCAD_Model
  facet normal -0.5547001963666549 -0.8320502942435597 0
    outer loop
      vertex -17.7210855409503 2.743689514696598 0
      vertex -7.6055512726306915 -4 0
      vertex -17.7210855409503 2.743689514696598 8
    endloop
  endfacet
  facet normal 0 0 -1
    outer loop
      vertex -17.7210855409503 2.743689514696598 0
      vertex -5 11 0
      vertex -7.6055512726306915 -4 0
    endloop
  endfacet
  facet normal 0 0 -1
    outer loop
      vertex -7.6055512726306915 -4 0
      vertex -5 11 0
      vertex -5 -4 0
    endloop
  endfacet
  facet normal 0 -1 0
    outer loop
      vertex -7.6055512726306915 -4 0
      vertex -5 -4 0
      vertex -7.6055512726306915 -4 8
    endloop
  endfacet
  facet normal 1 0 0
    outer loop
      vertex -5 -4 0
      vertex -5 11 0
      vertex -5 -4 8
    endloop
  endfacet
  facet normal 0 0 -1
    outer loop
      vertex -17.7210855409503 2.743689514696598 0
      vertex -9 15 0
      vertex -5 11 0
    endloop
  endfacet
  facet normal 0.7071067811865475 0.7071067811865475 0
    outer loop
      vertex -5 11 0
      vertex -9 15 0
      vertex -5 11 8
    endloop
  endfacet
  facet normal -0.961523947631583 -0.27472112792971903 0
    outer loop
      vertex -17.7210855409503 2.743689514696598 0
      vertex -17.7210855409503 2.743689514696598 8
      vertex -26.080031394958496 32 8
    endloop
  endfacet
  facet normal -0.5547001963666549 -0.8320502942435597 0
    outer loop
      vertex -17.7210855409503 2.743689514696598 8
      vertex -7.6055512726306915 -4 0
      vertex -7.6055512726306915 -4 8
    endloop
  endfacet
  facet normal 0 -1 0
    outer loop
      vertex -5 -4 0
      vertex -5 -4 8
      vertex -7.6055512726306915 -4 8
    endloop
  endfacet
  facet normal 0 0 1
    outer loop
      vertex -17.7210855409503 2.743689514696598 8
      vertex -7.6055512726306915 -4 8
      vertex -5 11 8
    endloop
  endfacet
  facet normal 0 0 1
    outer loop
      vertex -7.6055512726306915 -4 8
      vertex -5 -4 8
      vertex -5 11 8
    endloop
  endfacet
  facet normal 0.7071067811865475 0.7071067811865475 0
    outer loop
      vertex -5 11 8
      vertex -9 15 0
      vertex -9 15 8
    endloop
  endfacet
  facet normal 1 0 0
    outer loop
      vertex -5 11 0
      vertex -5 11 8
      vertex -5 -4 8
    endloop
  endfacet
  facet normal 0 0 1
    outer loop
      vertex -17.7210855409503 2.743689514696598 8
      vertex -5 11 8
      vertex -9 15 8
    endloop
  endfacet
  facet normal 0 0 -1
    outer loop
      vertex -17.7210855409503 2.743689514696598 0
      vertex -26.080031394958496 32 0
      vertex -9 15 0
    endloop
  endfacet
  facet normal 0 0 -1
    outer loop
      vertex -26.080031394958496 32 0
      vertex -5 19 0
      vertex -9 15 0
    endloop
  endfacet
  facet normal -0.961523947631583 -0.27472112792971903 0
    outer loop
      vertex -17.7210855409503 2.743689514696598 0
      vertex -26.080031394958496 32 8
      vertex -26.080031394958496 32 0
    endloop
  endfacet
  facet normal 0 1 0
    outer loop
      vertex -26.080031394958496 32 0
      vertex -23.99999999794467 32 2.45
      vertex -10 32 2.45
    endloop
  endfacet
  facet normal 0 1 0
    outer loop
      vertex -26.080031394958496 32 0
      vertex -10 32 2.45
      vertex -5 32 0
    endloop
  endfacet
  facet normal 0 1 0
    outer loop
      vertex -26.080031394958496 32 0
      vertex -26.080031394958496 32 8
      vertex -23.99999999794467 32 2.45
    endloop
  endfacet
  facet normal 0.7071067811865475 -0.7071067811865475 0
    outer loop
      vertex -9 15 0
      vertex -5 19 0
      vertex -9 15 8
    endloop
  endfacet
  facet normal 0 0 -1
    outer loop
      vertex -26.080031394958496 32 0
      vertex -5 32 0
      vertex -5 19 0
    endloop
  endfacet
  facet normal 0 1 0
    outer loop
      vertex -5 32 0
      vertex -10 32 2.45
      vertex -10 32 5.550000000000001
    endloop
  endfacet
  facet normal 1 0 0
    outer loop
      vertex -5 19 0
      vertex -5 32 0
      vertex -5 19 8
    endloop
  endfacet
  facet normal 0 0 1
    outer loop
      vertex -17.7210855409503 2.743689514696598 8
      vertex -9 15 8
      vertex -26.080031394958496 32 8
    endloop
  endfacet
  facet normal 0 0 1
    outer loop
      vertex -26.080031394958496 32 8
      vertex -9 15 8
      vertex -5 19 8
    endloop
  endfacet
  facet normal 0 1 0
    outer loop
      vertex -26.080031394958496 32 8
      vertex -23.99999999794467 32 5.550000000000001
      vertex -23.99999999794467 32 2.45
    endloop
  endfacet
  facet normal 0 1 0
    outer loop
      vertex -26.080031394958496 32 8
      vertex -5 32 8
      vertex -23.99999999794467 32 5.550000000000001
    endloop
  endfacet
  facet normal 0.7071067811865475 -0.7071067811865475 0
    outer loop
      vertex -5 19 0
      vertex -5 19 8
      vertex -9 15 8
    endloop
  endfacet
  facet normal 0 1 0
    outer loop
      vertex -5 32 0
      vertex -10 32 5.550000000000001
      vertex -5 32 8
    endloop
  endfacet
  facet normal 1 0 0
    outer loop
      vertex -5 32 0
      vertex -5 32 8
      vertex -5 19 8
    endloop
  endfacet
  facet normal 0 1 0
    outer loop
      vertex -5 32 8
      vertex -10 32 5.550000000000001
      vertex -23.99999999794467 32 5.550000000000001
    endloop
  endfacet
  facet normal 0 0 1
    outer loop
      vertex -26.080031394958496 32 8
      vertex -5 19 8
      vertex -5 32 8
    endloop
  endfacet
  facet normal 0 0 -1
    outer loop
      vertex 7.6055512726306915 -4 0
      vertex 5 -4 0
      vertex 5 11 0
    endloop
  endfacet
  facet normal 0 0 -1
    outer loop
      vertex 17.7210855409503 2.743689514696598 0
      vertex 7.6055512726306915 -4 0
      vertex 5 11 0
    endloop
  endfacet
  facet normal -1 0 0
    outer loop
      vertex 5 -4 0
      vertex 5 -4 8
      vertex 5 11 0
    endloop
  endfacet
  facet normal 0 -1 0
    outer loop
      vertex 7.6055512726306915 -4 0
      vertex 7.6055512726306915 -4 8
      vertex 5 -4 0
    endloop
  endfacet
  facet normal 0 0 -1
    outer loop
      vertex 17.7210855409503 2.743689514696598 0
      vertex 5 11 0
      vertex 9 15 0
    endloop
  endfacet
  facet normal -0.7071067811865475 0.7071067811865475 0
    outer loop
      vertex 5 11 0
      vertex 5 11 8
      vertex 9 15 0
    endloop
  endfacet
  facet normal 0.5547001963666549 -0.8320502942435597 0
    outer loop
      vertex 17.7210855409503 2.743689514696598 0
      vertex 17.7210855409503 2.743689514696598 8
      vertex 7.6055512726306915 -4 0
    endloop
  endfacet
  facet normal 0 -1 0
    outer loop
      vertex 5 -4 0
      vertex 7.6055512726306915 -4 8
      vertex 5 -4 8
    endloop
  endfacet
  facet normal 0.5547001963666549 -0.8320502942435597 0
    outer loop
      vertex 17.7210855409503 2.743689514696598 8
      vertex 7.6055512726306915 -4 8
      vertex 7.6055512726306915 -4 0
    endloop
  endfacet
  facet normal 0 0 1
    outer loop
      vertex 7.6055512726306915 -4 8
      vertex 5 11 8
      vertex 5 -4 8
    endloop
  endfacet
  facet normal 0 0 1
    outer loop
      vertex 17.7210855409503 2.743689514696598 8
      vertex 5 11 8
      vertex 7.6055512726306915 -4 8
    endloop
  endfacet
  facet normal -1 0 0
    outer loop
      vertex 5 11 0
      vertex 5 -4 8
      vertex 5 11 8
    endloop
  endfacet
  facet normal -0.7071067811865475 0.7071067811865475 0
    outer loop
      vertex 5 11 8
      vertex 9 15 8
      vertex 9 15 0
    endloop
  endfacet
  facet normal 0 0 1
    outer loop
      vertex 17.7210855409503 2.743689514696598 8
      vertex 9 15 8
      vertex 5 11 8
    endloop
  endfacet
  facet normal 0.961523947631583 -0.27472112792971903 0
    outer loop
      vertex 17.7210855409503 2.743689514696598 0
      vertex 26.080031394958496 32 8
      vertex 17.7210855409503 2.743689514696598 8
    endloop
  endfacet
  facet normal -0.7071067811865475 -0.7071067811865475 0
    outer loop
      vertex 9 15 0
      vertex 9 15 8
      vertex 5 19 0
    endloop
  endfacet
  facet normal 0 0 -1
    outer loop
      vertex 26.080031394958496 32 0
      vertex 5 19 0
      vertex 5 32 0
    endloop
  endfacet
  facet normal -1 0 0
    outer loop
      vertex 5 19 0
      vertex 5 19 8
      vertex 5 32 0
    endloop
  endfacet
  facet normal 0 1 0
    outer loop
      vertex 5 32 0
      vertex 10 32 5.550000000000001
      vertex 10 32 2.45
    endloop
  endfacet
  facet normal 0 0 -1
    outer loop
      vertex 17.7210855409503 2.743689514696598 0
      vertex 9 15 0
      vertex 26.080031394958496 32 0
    endloop
  endfacet
  facet normal 0 0 -1
    outer loop
      vertex 26.080031394958496 32 0
      vertex 9 15 0
      vertex 5 19 0
    endloop
  endfacet
  facet normal 0.961523947631583 -0.27472112792971903 0
    outer loop
      vertex 17.7210855409503 2.743689514696598 0
      vertex 26.080031394958496 32 0
      vertex 26.080031394958496 32 8
    endloop
  endfacet
  facet normal 0 1 0
    outer loop
      vertex 26.080031394958496 32 0
      vertex 5 32 0
      vertex 10 32 2.45
    endloop
  endfacet
  facet normal 0 1 0
    outer loop
      vertex 26.080031394958496 32 0
      vertex 10 32 2.45
      vertex 23.99999999794467 32 2.45
    endloop
  endfacet
  facet normal 0 1 0
    outer loop
      vertex 26.080031394958496 32 0
      vertex 23.99999999794467 32 2.45
      vertex 26.080031394958496 32 8
    endloop
  endfacet
  facet normal -0.7071067811865475 -0.7071067811865475 0
    outer loop
      vertex 5 19 0
      vertex 9 15 8
      vertex 5 19 8
    endloop
  endfacet
  facet normal -1 0 0
    outer loop
      vertex 5 32 0
      vertex 5 19 8
      vertex 5 32 8
    endloop
  endfacet
  facet normal 0 1 0
    outer loop
      vertex 5 32 0
      vertex 5 32 8
      vertex 10 32 5.550000000000001
    endloop
  endfacet
  facet normal 0 1 0
    outer loop
      vertex 5 32 8
      vertex 23.99999999794467 32 5.550000000000001
      vertex 10 32 5.550000000000001
    endloop
  endfacet
  facet normal 0 0 1
    outer loop
      vertex 26.080031394958496 32 8
      vertex 5 32 8
      vertex 5 19 8
    endloop
  endfacet
  facet normal 0 0 1
    outer loop
      vertex 17.7210855409503 2.743689514696598 8
      vertex 26.080031394958496 32 8
      vertex 9 15 8
    endloop
  endfacet
  facet normal 0 0 1
    outer loop
      vertex 26.080031394958496 32 8
      vertex 5 19 8
      vertex 9 15 8
    endloop
  endfacet
  facet normal 0 1 0
    outer loop
      vertex 26.080031394958496 32 8
      vertex 23.99999999794467 32 2.45
      vertex 23.99999999794467 32 5.550000000000001
    endloop
  endfacet
  facet normal 0 1 0
    outer loop
      vertex 26.080031394958496 32 8
      vertex 23.99999999794467 32 5.550000000000001
      vertex 5 32 8
    endloop
  endfacet
  facet normal 0.5547001962252291 0.8320502943378436 0
    outer loop
      vertex -16 4 2.45
      vertex -16 4 5.550000000000001
      vertex -10 0 2.45
    endloop
  endfacet
  facet normal 0.961523947659467 0.27472112783212455 0
    outer loop
      vertex -16 4 2.45
      vertex -23.99999999794467 32 2.45
      vertex -16 4 5.550000000000001
    endloop
  endfacet
  facet normal 0 0 1
    outer loop
      vertex -16 4 2.45
      vertex -10 0 2.45
      vertex -10 32 2.45
    endloop
  endfacet
  facet normal 0 0 -1
    outer loop
      vertex -16 4 5.550000000000001
      vertex -23.99999999794467 32 5.550000000000001
      vertex -10 0 5.550000000000001
    endloop
  endfacet
  facet normal 0.5547001962252291 0.8320502943378436 0
    outer loop
      vertex -10 0 2.45
      vertex -16 4 5.550000000000001
      vertex -10 0 5.550000000000001
    endloop
  endfacet
  facet normal -1 0 0
    outer loop
      vertex -10 0 2.45
      vertex -10 0 5.550000000000001
      vertex -10 32 5.550000000000001
    endloop
  endfacet
  facet normal 0 0 1
    outer loop
      vertex -16 4 2.45
      vertex -10 32 2.45
      vertex -23.99999999794467 32 2.45
    endloop
  endfacet
  facet normal -1 0 0
    outer loop
      vertex -10 0 2.45
      vertex -10 32 5.550000000000001
      vertex -10 32 2.45
    endloop
  endfacet
  facet normal 0.961523947659467 0.27472112783212455 0
    outer loop
      vertex -16 4 5.550000000000001
      vertex -23.99999999794467 32 2.45
      vertex -23.99999999794467 32 5.550000000000001
    endloop
  endfacet
  facet normal 0 0 -1
    outer loop
      vertex -10 0 5.550000000000001
      vertex -23.99999999794467 32 5.550000000000001
      vertex -10 32 5.550000000000001
    endloop
  endfacet
  facet normal 0 0 1
    outer loop
      vertex 16 4 2.45
      vertex 10 32 2.45
      vertex 10 0 2.45
    endloop
  endfacet
  facet normal -0.5547001962252291 0.8320502943378436 0
    outer loop
      vertex 16 4 2.45
      vertex 10 0 2.45
      vertex 16 4 5.550000000000001
    endloop
  endfacet
  facet normal -0.961523947659467 0.27472112783212455 0
    outer loop
      vertex 16 4 2.45
      vertex 16 4 5.550000000000001
      vertex 23.99999999794467 32 2.45
    endloop
  endfacet
  facet normal -0.5547001962252291 0.8320502943378436 0
    outer loop
      vertex 10 0 2.45
      vertex 10 0 5.550000000000001
      vertex 16 4 5.550000000000001
    endloop
  endfacet
  facet normal 1 0 0
    outer loop
      vertex 10 0 2.45
      vertex 10 32 5.550000000000001
      vertex 10 0 5.550000000000001
    endloop
  endfacet
  facet normal 0 0 -1
    outer loop
      vertex 16 4 5.550000000000001
      vertex 10 0 5.550000000000001
      vertex 23.99999999794467 32 5.550000000000001
    endloop
  endfacet
  facet normal 1 0 0
    outer loop
      vertex 10 0 2.45
      vertex 10 32 2.45
      vertex 10 32 5.550000000000001
    endloop
  endfacet
  facet normal 0 0 1
    outer loop
      vertex 16 4 2.45
      vertex 23.99999999794467 32 2.45
      vertex 10 32 2.45
    endloop
  endfacet
  facet normal 0 0 -1
    outer loop
      vertex 10 0 5.550000000000001
      vertex 10 32 5.550000000000001
      vertex 23.99999999794467 32 5.550000000000001
    endloop
  endfacet
  facet normal -0.961523947659467 0.27472112783212455 0
    outer loop
      vertex 16 4 5.550000000000001
      vertex 23.99999999794467 32 5.550000000000001
      vertex 23.99999999794467 32 2.45
    endloop
  endfacet
endsolid OpenSCAD_Model
