solid OpenSCAD_Model
  facet normal 0 -1 0
    outer loop
      vertex 0 0 0
      vertex 2 0 2
      vertex 2 0 4.2
    endloop
  endfacet
  facet normal 0 -1 0
    outer loop
      vertex 0 0 0
      vertex 2 0 4.2
      vertex 0 0 4.2
    endloop
  endfacet
  facet normal -1 0 0
    outer loop
      vertex 0 0 0
      vertex 0 0 4.2
      vertex 0 13 0
    endloop
  endfacet
  facet normal 0 -1 0
    outer loop
      vertex 0 0 0
      vertex 16.6 0 0
      vertex 2 0 2
    endloop
  endfacet
  facet normal 0 -1 0
    outer loop
      vertex 2 0 4.2
      vertex 0 0 6.2
      vertex 0 0 4.2
    endloop
  endfacet
  facet normal 0 -1 0
    outer loop
      vertex 2 0 4.2
      vertex 14.6 0 4.2
      vertex 0 0 6.2
    endloop
  endfacet
  facet normal 0 0 1
    outer loop
      vertex 0 8 6.2
      vertex 0 0 6.2
      vertex 16.6 0 6.2
    endloop
  endfacet
  facet normal -1 0 0
    outer loop
      vertex 0 13 0
      vertex 0 0 4.2
      vertex 0 8 4.2
    endloop
  endfacet
  facet normal 0 0 -1
    outer loop
      vertex 0 0 0
      vertex 0 13 0
      vertex 16.6 13 0
    endloop
  endfacet
  facet normal -1 0 0
    outer loop
      vertex 0 13 6.2
      vertex 0 8 4.2
      vertex 0 8 6.2
    endloop
  endfacet
  facet normal -1 0 0
    outer loop
      vertex 0 13 0
      vertex 0 8 4.2
      vertex 0 13 6.2
    endloop
  endfacet
  facet normal 0 0 1
    outer loop
      vertex 0 13 6.2
      vertex 0 8 6.2
      vertex 16.6 0 6.2
    endloop
  endfacet
  facet normal 0 1 0
    outer loop
      vertex 1 14 1
      vertex 1 14 5.2
      vertex 15.600000000000001 14 5.2
    endloop
  endfacet
  facet normal 0 -1 0
    outer loop
      vertex 2 0 2
      vertex 16.6 0 0
      vertex 14.6 0 2
    endloop
  endfacet
  facet normal 0 0 -1
    outer loop
      vertex 0 0 0
      vertex 16.6 13 0
      vertex 16.6 0 0
    endloop
  endfacet
  facet normal 0 -1 0
    outer loop
      vertex 16.6 0 0
      vertex 16.6 0 4.2
      vertex 14.6 0 2
    endloop
  endfacet
  facet normal 1 0 0
    outer loop
      vertex 16.6 0 0
      vertex 16.6 8 4.2
      vertex 16.6 0 4.2
    endloop
  endfacet
  facet normal 0 -1 0
    outer loop
      vertex 14.6 0 4.2
      vertex 16.6 0 6.2
      vertex 0 0 6.2
    endloop
  endfacet
  facet normal 0 -1 0
    outer loop
      vertex 14.6 0 2
      vertex 16.6 0 6.2
      vertex 14.6 0 4.2
    endloop
  endfacet
  facet normal 0 -1 0
    outer loop
      vertex 14.6 0 2
      vertex 16.6 0 4.2
      vertex 16.6 0 6.2
    endloop
  endfacet
  facet normal 0 1 0
    outer loop
      vertex 1 14 1
      vertex 15.600000000000001 14 5.2
      vertex 15.600000000000001 14 1
    endloop
  endfacet
  facet normal 1 0 0
    outer loop
      vertex 16.6 0 0
      vertex 16.6 13 0
      vertex 16.6 13 6.2
    endloop
  endfacet
  facet normal 0 0 1
    outer loop
      vertex 0 13 6.2
      vertex 16.6 0 6.2
      vertex 16.6 8 6.2
    endloop
  endfacet
  facet normal 0 0 1
    outer loop
      vertex 0 13 6.2
      vertex 16.6 8 6.2
      vertex 16.6 13 6.2
    endloop
  endfacet
  facet normal 1 0 0
    outer loop
      vertex 16.6 0 0
      vertex 16.6 13 6.2
      vertex 16.6 8 4.2
    endloop
  endfacet
  facet normal 1 0 0
    outer loop
      vertex 16.6 13 6.2
      vertex 16.6 8 6.2
      vertex 16.6 8 4.2
    endloop
  endfacet
  facet normal 0 0.7071067811865475 -0.7071067811865475
    outer loop
      vertex 0 13 0
      vertex 1 14 1
      vertex 16.6 13 0
    endloop
  endfacet
  facet normal 0 0.7071067811865476 -0.7071067811865476
    outer loop
      vertex 1 14 1
      vertex 15.600000000000001 14 1
      vertex 16.6 13 0
    endloop
  endfacet
  facet normal 0 0.7071067811865476 0.7071067811865476
    outer loop
      vertex 1 14 5.2
      vertex 0 13 6.2
      vertex 15.600000000000001 14 5.2
    endloop
  endfacet
  facet normal 0 0.7071067811865475 0.7071067811865475
    outer loop
      vertex 0 13 6.2
      vertex 16.6 13 6.2
      vertex 15.600000000000001 14 5.2
    endloop
  endfacet
  facet normal -0.7071067811865475 0.7071067811865475 0
    outer loop
      vertex 0 13 0
      vertex 0 13 6.2
      vertex 1 14 1
    endloop
  endfacet
  facet normal -0.7071067811865476 0.7071067811865476 0
    outer loop
      vertex 1 14 1
      vertex 0 13 6.2
      vertex 1 14 5.2
    endloop
  endfacet
  facet normal 0.7071067811865476 0.7071067811865476 0
    outer loop
      vertex 16.6 13 0
      vertex 15.600000000000001 14 1
      vertex 15.600000000000001 14 5.2
    endloop
  endfacet
  facet normal 0.7071067811865475 0.7071067811865475 0
    outer loop
      vertex 16.6 13 0
      vertex 15.600000000000001 14 5.2
      vertex 16.6 13 6.2
    endloop
  endfacet
  facet normal 1 0 0
    outer loop
      vertex 2 0 2
      vertex 2 12 4.2
      vertex 2 0 4.2
    endloop
  endfacet
  facet normal 0 0 -1
    outer loop
      vertex 2 0 4.2
      vertex 2 12 4.2
      vertex 14.6 0 4.2
    endloop
  endfacet
  facet normal 1 0 0
    outer loop
      vertex 2 0 2
      vertex 2 12 2
      vertex 2 12 4.2
    endloop
  endfacet
  facet normal 0 0 1
    outer loop
      vertex 2 0 2
      vertex 14.6 12 2
      vertex 2 12 2
    endloop
  endfacet
  facet normal 0 -1 0
    outer loop
      vertex 2 12 2
      vertex 14.6 12 2
      vertex 2 12 4.2
    endloop
  endfacet
  facet normal 0 0 1
    outer loop
      vertex 2 0 2
      vertex 14.6 0 2
      vertex 14.6 12 2
    endloop
  endfacet
  facet normal -1 0 0
    outer loop
      vertex 14.6 0 2
      vertex 14.6 0 4.2
      vertex 14.6 12 2
    endloop
  endfacet
  facet normal 0 0 -1
    outer loop
      vertex 2 12 4.2
      vertex 14.6 12 4.2
      vertex 14.6 0 4.2
    endloop
  endfacet
  facet normal -1 0 0
    outer loop
      vertex 14.6 0 4.2
      vertex 14.6 12 4.2
      vertex 14.6 12 2
    endloop
  endfacet
  facet normal 0 -1 0
    outer loop
      vertex 2 12 4.2
      vertex 14.6 12 2
      vertex 14.6 12 4.2
    endloop
  endfacet
  facet normal 0 0 -1
    outer loop
      vertex 21.6 0 4.2
      vertex 16.6 0 4.2
      vertex 16.6 8 4.2
    endloop
  endfacet
  facet normal 0 -1 0
    outer loop
      vertex 21.6 0 4.2
      vertex 16.6 0 6.2
      vertex 16.6 0 4.2
    endloop
  endfacet
  facet normal 0 0 1
    outer loop
      vertex 21.6 0 6.2
      vertex 16.6 8 6.2
      vertex 16.6 0 6.2
    endloop
  endfacet
  facet normal 0 -1 0
    outer loop
      vertex 21.6 0 4.2
      vertex 21.6 0 6.2
      vertex 16.6 0 6.2
    endloop
  endfacet
  facet normal 0.847998304005088 0.52999894000318 0
    outer loop
      vertex 21.6 0 4.2
      vertex 16.6 8 4.2
      vertex 21.6 0 6.2
    endloop
  endfacet
  facet normal 0.847998304005088 0.52999894000318 0
    outer loop
      vertex 21.6 0 6.2
      vertex 16.6 8 4.2
      vertex 16.6 8 6.2
    endloop
  endfacet
  facet normal 0 0 -1
    outer loop
      vertex -5 0 4.2
      vertex 0 8 4.2
      vertex 0 0 4.2
    endloop
  endfacet
  facet normal 0 -1 0
    outer loop
      vertex -5 0 4.2
      vertex 0 0 4.2
      vertex -5 0 6.2
    endloop
  endfacet
  facet normal -0.847998304005088 0.52999894000318 0
    outer loop
      vertex -5 0 4.2
      vertex -5 0 6.2
      vertex 0 8 6.2
    endloop
  endfacet
  facet normal 0 -1 0
    outer loop
      vertex -5 0 6.2
      vertex 0 0 4.2
      vertex 0 0 6.2
    endloop
  endfacet
  facet normal 0 0 1
    outer loop
      vertex -5 0 6.2
      vertex 0 0 6.2
      vertex 0 8 6.2
    endloop
  endfacet
  facet normal -0.847998304005088 0.52999894000318 0
    outer loop
      vertex -5 0 4.2
      vertex 0 8 6.2
      vertex 0 8 4.2
    endloop
  endfacet
endsolid OpenSCAD_Model
